<?xml version="1.0" encoding="utf-8"?>
<!-- Generator: Adobe Illustrator 27.4.1, SVG Export Plug-In . SVG Version: 6.00 Build 0)  -->
<svg version="1.1" id="Capa_1" xmlns="http://www.w3.org/2000/svg" xmlns:xlink="http://www.w3.org/1999/xlink" x="0px" y="0px"
	 viewBox="0 0 27 26" style="enable-background:new 0 0 27 26;" xml:space="preserve">
<style type="text/css">
	.st0{fill:#FFFFFF;}
</style>
<path class="st0" d="M5.9,16.1h10.7c0.4,0,0.7-0.2,0.9-0.6l1.9-3.7c0.5,0.2,1.1,0.2,1.7,0.2c3.3,0,6-2.7,6-6s-2.7-6-6-6
	c-3,0-5.6,2.3-5.9,5.2H4.5L4.2,3.8C4.1,3.3,3.7,3,3.2,3H1C0.4,3,0,3.4,0,4s0.4,1,1,1h1.4l0.3,1.4l1.7,8.3l-2.2,2.2
	c-1.3,1.3-0.4,3.6,1.5,3.6h3.7c-0.2,0.2-0.4,0.4-0.6,0.7c-0.1,0.2-0.1,0.3-0.1,0.5v2.2c0,0.2,0,0.3,0.1,0.5l0.9-0.5h0l-0.9,0.5
	c0.7,1.3,2.2,1.9,3.6,1.5c1.4-0.4,2.4-1.6,2.4-3.1c0-0.9-0.4-1.7-1-2.3h4.3l1.9,1.9c0.2,0.2,0.4,0.3,0.7,0.3c1.8,0,3.2-1.4,3.2-3.2
	c0-1.8-1.4-3.2-3.2-3.2c-1.4,0-2.6,0.9-3,2.2h-12c0,0-0.1,0-0.1,0c0,0,0,0,0-0.1c0,0,0,0,0-0.1c0,0,0,0,0-0.1L5.9,16.1z M18.5,5H20
	V3.5c0-0.5,0.4-1,1-1s1,0.4,1,1V5h1.6c0.5,0,1,0.4,1,1s-0.4,1-1,1H22v1.6c0,0.5-0.4,1-1,1c-0.3,0-0.5-0.1-0.7-0.3
	C20.1,9,20,8.8,20,8.5V7h-1.6c-0.3,0-0.5-0.1-0.7-0.3c-0.2-0.2-0.3-0.4-0.3-0.7C17.5,5.5,17.9,5,18.5,5z M15.1,7.2
	c0.3,1.5,1.2,2.8,2.4,3.7l-1.6,3.2H6.3L4.9,7.2H15.1z M18.8,18.3c0.7,0,1.2,0.5,1.2,1.2c0,0.5-0.4,1-0.9,1.1l-1.5-1.5
	C17.8,18.6,18.2,18.3,18.8,18.3z M8.7,22c0.3-0.4,0.8-0.5,1.2-0.4c0.5,0.1,0.9,0.6,0.9,1.2s-0.4,1-0.9,1.2c-0.5,0.1-0.9,0-1.2-0.4
	V22z"/>
</svg>
